REM DIRINDEX 1\2,1\3,1\4,1\5
REM DIRNAME folder01,folder02,folder03,folder04,folder05
TITLE ""
FILE "142.mp3" MP3
  TRACK 01 AUDIO
    TITLE "0:"
    INDEX 01 00:00:00
  TRACK 02 AUDIO
    TITLE "5:cjc046_3798"
    INDEX 01 00:00:09
  TRACK 03 AUDIO
    TITLE "0:"
    INDEX 01 00:01:52
  TRACK 04 AUDIO
    TITLE "2:cjc046_3799"
    INDEX 01 00:02:34
  TRACK 05 AUDIO
    TITLE "0:"
    INDEX 01 00:03:31
  TRACK 06 AUDIO
    TITLE "3:cjc046_3800"
    INDEX 01 00:03:57
  TRACK 07 AUDIO
    TITLE "0:"
    INDEX 01 00:05:46
  TRACK 08 AUDIO
    TITLE "4:cjc046_3801"
    INDEX 01 00:05:69
  TRACK 09 AUDIO
    TITLE "0:"
    INDEX 01 00:06:65
  TRACK 10 AUDIO
    TITLE "2:cjc046_3802"
    INDEX 01 00:08:01
  TRACK 11 AUDIO
    TITLE "0:"
    INDEX 01 00:09:12
  TRACK 12 AUDIO
    TITLE "3:cjc046_3803"
    INDEX 01 00:09:36
  TRACK 13 AUDIO
    TITLE "0:"
    INDEX 01 00:10:47
  TRACK 14 AUDIO
    TITLE "4:cjc046_3804"
    INDEX 01 00:10:63
  TRACK 15 AUDIO
    TITLE "0:"
    INDEX 01 00:11:74
  TRACK 16 AUDIO
    TITLE "2:cjc046_3805"
    INDEX 01 00:13:10
  TRACK 17 AUDIO
    TITLE "0:"
    INDEX 01 00:14:09
  TRACK 18 AUDIO
    TITLE "3:cjc046_3806"
    INDEX 01 00:14:29
  TRACK 19 AUDIO
    TITLE "0:"
    INDEX 01 00:15:52
  TRACK 20 AUDIO
    TITLE "4:cjc046_3807"
    INDEX 01 00:15:60
  TRACK 21 AUDIO
    TITLE "0:"
    INDEX 01 00:16:59
  TRACK 22 AUDIO
    TITLE "2:cjc046_3808"
    INDEX 01 00:17:67
  TRACK 23 AUDIO
    TITLE "0:"
    INDEX 01 00:19:28
  TRACK 24 AUDIO
    TITLE "3:cjc046_3809"
    INDEX 01 00:19:50
  TRACK 25 AUDIO
    TITLE "0:"
    INDEX 01 00:20:65
  TRACK 26 AUDIO
    TITLE "4:cjc046_3810"
    INDEX 01 00:21:08
  TRACK 27 AUDIO
    TITLE "0:"
    INDEX 01 00:22:42
  TRACK 28 AUDIO
    TITLE "2:cjc046_3811"
    INDEX 01 00:23:50
  TRACK 29 AUDIO
    TITLE "0:"
    INDEX 01 00:24:49
  TRACK 30 AUDIO
    TITLE "3:cjc046_3812"
    INDEX 01 00:24:67
  TRACK 31 AUDIO
    TITLE "0:"
    INDEX 01 00:26:18
  TRACK 32 AUDIO
    TITLE "4:cjc046_3813"
    INDEX 01 00:26:34
  TRACK 33 AUDIO
    TITLE "0:"
    INDEX 01 00:27:32
  TRACK 34 AUDIO
    TITLE "2:cjc046_3814"
    INDEX 01 00:28:37
  TRACK 35 AUDIO
    TITLE "0:"
    INDEX 01 00:29:48
  TRACK 36 AUDIO
    TITLE "3:cjc046_3815"
    INDEX 01 00:29:68
  TRACK 37 AUDIO
    TITLE "0:"
    INDEX 01 00:31:18
  TRACK 38 AUDIO
    TITLE "4:cjc046_3816"
    INDEX 01 00:31:35
  TRACK 39 AUDIO
    TITLE "0:"
    INDEX 01 00:32:43
  TRACK 40 AUDIO
    TITLE "2:cjc046_3817"
    INDEX 01 00:33:54
  TRACK 41 AUDIO
    TITLE "0:"
    INDEX 01 00:35:21
  TRACK 42 AUDIO
    TITLE "3:cjc046_3818"
    INDEX 01 00:35:43
  TRACK 43 AUDIO
    TITLE "0:"
    INDEX 01 00:37:26
  TRACK 44 AUDIO
    TITLE "4:cjc046_3819"
    INDEX 01 00:37:44
  TRACK 45 AUDIO
    TITLE "0:"
    INDEX 01 00:39:11
  TRACK 46 AUDIO
    TITLE "2:cjc046_3820"
    INDEX 01 00:40:21
  TRACK 47 AUDIO
    TITLE "0:"
    INDEX 01 00:41:40
  TRACK 48 AUDIO
    TITLE "3:cjc046_3821"
    INDEX 01 00:41:67
  TRACK 49 AUDIO
    TITLE "0:"
    INDEX 01 00:43:15
  TRACK 50 AUDIO
    TITLE "4:cjc046_3822"
    INDEX 01 00:43:29
  TRACK 51 AUDIO
    TITLE "0:"
    INDEX 01 00:44:48
  TRACK 52 AUDIO
    TITLE "2:cjc046_3823"
    INDEX 01 00:45:61
  TRACK 53 AUDIO
    TITLE "0:"
    INDEX 01 00:46:64
  TRACK 54 AUDIO
    TITLE "3:cjc046_3824"
    INDEX 01 00:47:07
  TRACK 55 AUDIO
    TITLE "0:"
    INDEX 01 00:48:22
  TRACK 56 AUDIO
    TITLE "4:cjc046_3825"
    INDEX 01 00:48:44
  TRACK 57 AUDIO
    TITLE "0:"
    INDEX 01 00:49:47
  TRACK 58 AUDIO
    TITLE "2:cjc046_3826"
    INDEX 01 00:50:54
  TRACK 59 AUDIO
    TITLE "0:"
    INDEX 01 00:51:65
  TRACK 60 AUDIO
    TITLE "3:cjc046_3827"
    INDEX 01 00:52:04
  TRACK 61 AUDIO
    TITLE "0:"
    INDEX 01 00:53:29
  TRACK 62 AUDIO
    TITLE "4:cjc046_3828"
    INDEX 01 00:53:47
  TRACK 63 AUDIO
    TITLE "0:"
    INDEX 01 00:54:58
  TRACK 64 AUDIO
    TITLE "2:cjc046_3829"
    INDEX 01 00:55:67
  TRACK 65 AUDIO
    TITLE "0:"
    INDEX 01 00:56:74
  TRACK 66 AUDIO
    TITLE "3:cjc046_3830"
    INDEX 01 00:57:11
  TRACK 67 AUDIO
    TITLE "0:"
    INDEX 01 00:58:24
  TRACK 68 AUDIO
    TITLE "4:cjc046_3831"
    INDEX 01 00:58:44
  TRACK 69 AUDIO
    TITLE "0:"
    INDEX 01 00:59:51
  TRACK 70 AUDIO
    TITLE "2:cjc046_3832"
    INDEX 01 01:00:59
  TRACK 71 AUDIO
    TITLE "0:"
    INDEX 01 01:01:72
  TRACK 72 AUDIO
    TITLE "3:cjc046_3833"
    INDEX 01 01:02:20
  TRACK 73 AUDIO
    TITLE "0:"
    INDEX 01 01:03:33
  TRACK 74 AUDIO
    TITLE "4:cjc046_3834"
    INDEX 01 01:03:51
  TRACK 75 AUDIO
    TITLE "0:"
    INDEX 01 01:04:64
  TRACK 76 AUDIO
    TITLE "2:cjc046_3835"
    INDEX 01 01:06:00
  TRACK 77 AUDIO
    TITLE "0:"
    INDEX 01 01:07:14
  TRACK 78 AUDIO
    TITLE "3:cjc046_3836"
    INDEX 01 01:07:33
  TRACK 79 AUDIO
    TITLE "0:"
    INDEX 01 01:08:58
  TRACK 80 AUDIO
    TITLE "4:cjc046_3837"
    INDEX 01 01:09:03
  TRACK 81 AUDIO
    TITLE "0:"
    INDEX 01 01:10:14
  TRACK 82 AUDIO
    TITLE "2:cjc046_3838"
    INDEX 01 01:11:23
  TRACK 83 AUDIO
    TITLE "0:"
    INDEX 01 01:12:48
  TRACK 84 AUDIO
    TITLE "3:cjc046_3839"
    INDEX 01 01:12:68
  TRACK 85 AUDIO
    TITLE "0:"
    INDEX 01 01:14:25
  TRACK 86 AUDIO
    TITLE "4:cjc046_3840"
    INDEX 01 01:14:37
  TRACK 87 AUDIO
    TITLE "0:"
    INDEX 01 01:15:62
